<svg width="20" height="20" viewBox="0 0 20 20" fill="none" xmlns="http://www.w3.org/2000/svg">
<path d="M10.1623 0.289429C4.8415 0.289429 0.512589 4.61834 0.512589 9.93914C0.512589 15.2599 4.8415 19.5889 10.1623 19.5889C15.4831 19.5889 19.812 15.2599 19.812 9.93914C19.812 4.61834 15.4831 0.289429 10.1623 0.289429ZM11.6469 14.3929H8.67773C8.48086 14.3929 8.29206 14.3146 8.15285 14.1754C8.01365 14.0362 7.93544 13.8474 7.93544 13.6506C7.93544 13.4537 8.01365 13.2649 8.15285 13.1257C8.29206 12.9865 8.48086 12.9083 8.67773 12.9083H11.6469C11.8437 12.9083 12.0325 12.9865 12.1717 13.1257C12.311 13.2649 12.3892 13.4537 12.3892 13.6506C12.3892 13.8474 12.311 14.0362 12.1717 14.1754C12.0325 14.3146 11.8437 14.3929 11.6469 14.3929ZM13.8737 11.4237H6.45087C6.25401 11.4237 6.0652 11.3455 5.926 11.2063C5.78679 11.0671 5.70859 10.8783 5.70859 10.6814C5.70859 10.4846 5.78679 10.2958 5.926 10.1565C6.0652 10.0173 6.25401 9.93914 6.45087 9.93914H13.8737C14.0706 9.93914 14.2594 10.0173 14.3986 10.1565C14.5378 10.2958 14.616 10.4846 14.616 10.6814C14.616 10.8783 14.5378 11.0671 14.3986 11.2063C14.2594 11.3455 14.0706 11.4237 13.8737 11.4237ZM15.3583 8.45457H4.9663C4.76943 8.45457 4.58063 8.37636 4.44143 8.23716C4.30222 8.09795 4.22402 7.90915 4.22402 7.71228C4.22402 7.51542 4.30222 7.32661 4.44143 7.18741C4.58063 7.0482 4.76943 6.97 4.9663 6.97H15.3583C15.5552 6.97 15.744 7.0482 15.8832 7.18741C16.0224 7.32661 16.1006 7.51542 16.1006 7.71228C16.1006 7.90915 16.0224 8.09795 15.8832 8.23716C15.744 8.37636 15.5552 8.45457 15.3583 8.45457Z" fill="white"/>
</svg>
